<?xml version="1.0" encoding="UTF-8" standalone="no"?>
<!-- Created with Inkscape (http://www.inkscape.org/) -->

<svg
   xmlns:dc="http://purl.org/dc/elements/1.1/"
   xmlns:cc="http://creativecommons.org/ns#"
   xmlns:rdf="http://www.w3.org/1999/02/22-rdf-syntax-ns#"
   xmlns:svg="http://www.w3.org/2000/svg"
   xmlns="http://www.w3.org/2000/svg"
   xmlns:sodipodi="http://sodipodi.sourceforge.net/DTD/sodipodi-0.dtd"
   xmlns:inkscape="http://www.inkscape.org/namespaces/inkscape"
   version="1.1"
   id="svg10"
   width="8900"
   height="5856"
   viewBox="0 0 8900 5856"
   sodipodi:docname="logo.svg"
   inkscape:version="0.92.4 (5da689c313, 2019-01-14)">
  <metadata
     id="metadata16">
    <rdf:RDF>
      <cc:Work
         rdf:about="">
        <dc:format>image/svg+xml</dc:format>
        <dc:type
           rdf:resource="http://purl.org/dc/dcmitype/StillImage" />
        <dc:title></dc:title>
      </cc:Work>
    </rdf:RDF>
  </metadata>
  <defs
     id="defs14" />
  <sodipodi:namedview
     pagecolor="#ffffff"
     bordercolor="#666666"
     borderopacity="1"
     objecttolerance="10"
     gridtolerance="10"
     guidetolerance="10"
     inkscape:pageopacity="0"
     inkscape:pageshadow="2"
     inkscape:window-width="2560"
     inkscape:window-height="1377"
     id="namedview12"
     showgrid="false"
     inkscape:zoom="0.125"
     inkscape:cx="4569.3821"
     inkscape:cy="2784.3432"
     inkscape:window-x="-8"
     inkscape:window-y="-8"
     inkscape:window-maximized="1"
     inkscape:current-layer="svg10" />
  <path
     style="fill:#F28500;fill-opacity:1"
     d="M 3699.1602 107.13672 C 3659.7059 107.13672 3638.4542 123.39616 3584.5508 194.81836 C 3555.7063 233.03746 3509.4655 279.41551 3474.9414 304.75391 C 3430.4941 337.37541 3208.4693 444.66974 3077.9746 496.58984 C 2810.0169 603.20268 2271.5111 768.99023 2193.1699 768.99023 C 2173.3253 768.99023 2166.7193 765.69003 2149.4492 747.16016 C 2111.406 706.34165 2056.7819 702.60033 1969.1367 734.80859 C 1948.1158 742.53346 1930.7129 747.65611 1913.7871 750.12305 C 1893.1602 751.66539 1871.6689 750.62558 1847.6562 746.94531 C 1829.9718 743.28712 1809.7779 737.56468 1785.0449 729.71094 C 1678.9206 696.01215 1627.7617 687.63927 1529.4785 687.88477 C 1401.0896 688.20518 1309.3409 712.26793 1214.8945 770.39062 C 1157.5713 805.66769 1076.8005 882.09584 1043.3594 932.70312 C 942.5111 1085.3191 839.37911 1410.5531 755.34961 1840.9629 C 741.37901 1912.5221 728.13913 1983.7992 725.92773 1999.3555 C 724.65476 2008.31 722.39566 2018.4663 719.93164 2027.0625 C 716.62924 2036.2633 712.95742 2044.3821 708.61719 2051.8613 C 690.8905 2077.0634 651.24046 2110.4986 615.89844 2129.0703 C 544.66834 2166.5007 478.69761 2252.6141 462.87891 2328.8125 C 455.03551 2366.5936 458.07032 2399.4467 474.35742 2453.0684 C 484.78412 2487.3961 485.33849 2494.7568 478.93359 2513.8984 C 469.64229 2541.6659 450.60832 2555.6456 414.26562 2561.3906 C 339.42793 2573.2209 287.58484 2632.1519 277.36914 2717.0078 C 273.47654 2749.3413 270.18691 2756.4261 247.16211 2782.0352 C 187.55521 2848.3325 179.10005 2908.9961 221.28125 2967.7324 C 227.60393 2976.5366 231.57571 2982.5163 233.89648 2988.5684 C 234.58646 2990.7223 235.21021 2992.8658 235.74805 2995.0059 C 237.23309 3002.647 236.72234 3011.7971 235.35547 3027.2734 C 232.69517 3057.394 224.79348 3077.575 183.77148 3159.0098 C 126.00778 3273.6794 114.36537 3313.2101 105.75977 3423.8789 C 97.879662 3525.2161 106.51498 3701.5124 123.33398 3782.666 C 135.01358 3839.0212 164.62126 3921.3814 196.03906 3984.9102 C 302.88616 4200.9616 505.44428 4360.1925 721.33008 4397.8398 C 758.62998 4404.3444 861.38615 4406.9319 1203.2754 4409.9727 L 1637.8145 4413.8359 L 1661.3496 4400.6094 C 1707.0015 4374.9515 1725.8405 4331.3228 1735.875 4228.0195 C 1748.1221 4101.9386 1775.8075 3986.383 1809.7051 3919.8574 C 1818.4243 3902.7455 1838.2046 3873.9184 1853.6621 3855.7969 C 1894.3571 3808.0881 1917.5406 3759.3044 1921.2031 3713.6777 C 1923.8175 3681.1075 1926.3452 3674.4921 1940.8223 3662.3105 C 1973.7466 3634.6065 2011.6373 3648.1966 2080.3789 3712.3633 C 2104.3108 3734.7024 2242.1608 3856.2058 2386.7129 3982.3711 C 3469.4133 4927.3541 4390.246 5730.6145 4411.0234 5748.2188 C 4424.6535 5759.7673 4446.2784 5773.082 4459.0801 5777.8066 C 4488.4679 5788.6531 4537.1246 5785.4481 4555.4375 5771.4609 C 4572.7034 5758.2733 6373.1612 4189.8397 6667.8398 3931.2832 C 6790.2456 3823.8823 6899.448 3729.0091 6910.5117 3720.4531 C 6951.0198 3689.1267 6970.5054 3701.7536 7001.9219 3779.6895 C 7014.8122 3811.6682 7035.5115 3855.6528 7047.9199 3877.4316 C 7112.0629 3990.0131 7149.6927 4090.1988 7164.1504 4186.8887 C 7177.03 4273.0269 7201.7465 4328.5032 7249.5996 4378.6719 C 7267.8316 4397.7864 7292.2856 4416.3001 7309.7031 4424.1777 L 7339.0684 4437.459 L 7689.793 4439.0508 C 8115.1788 4440.9817 8148.7308 4438.9745 8230.0215 4406.7383 C 8426.3019 4328.9025 8605.5521 4173.9812 8692.1484 4007.332 C 8741.0417 3913.2396 8776.2336 3797.8721 8790.3203 3685.4961 C 8811.611 3515.6481 8763.0781 3265.1823 8673.9883 3085.1348 C 8666.4445 3069.8887 8659.6615 3054.6863 8655.0059 3042.9297 C 8651.6457 3030.9557 8650.3092 3021.6962 8650.7734 3013.7773 C 8653.2939 3007.1426 8657.7852 2998.8922 8662.8945 2991.9668 C 8678.9917 2970.1486 8686.815 2944.5682 8688.7949 2907.2812 C 8691.7659 2851.3457 8690.2901 2847.3006 8654.416 2813.1445 C 8618.8191 2779.2526 8612.0666 2765.4998 8606.209 2714.9473 C 8600.5815 2666.3874 8587.6801 2633.1361 8564.0469 2606.2871 C 8539.7959 2578.7367 8488.7275 2550.8984 8462.4395 2550.8984 C 8433.3345 2550.8984 8425.3967 2531.6354 8431.4609 2475.7246 C 8434.2316 2450.1778 8436.3202 2403.4027 8436.0996 2371.7793 C 8435.7347 2319.0959 8434.2029 2311.2412 8417.8184 2277.959 C 8393.8616 2229.2957 8342.4821 2174.3574 8294.9277 2146.5547 C 8202.8075 2092.6962 8186.6947 2070.9035 8178.9375 1989.6816 C 8157.7294 1767.6316 8059.2235 1357.0582 7977 1147.998 C 7901.3254 955.59122 7800.8138 812.38812 7708.6699 765.69531 C 7639.6523 730.72147 7539.0491 701.77203 7466.4785 696.00391 C 7359.7885 687.52395 7257.5598 700.66821 7119.1875 740.6582 C 7021.8116 768.80004 6975.8403 771.05291 6943.7207 749.25586 C 6875.8045 703.16687 6806.8215 696.81491 6731.8359 729.74805 L 6707.2598 740.54102 L 6587.5859 712.2793 C 6053.5099 586.14589 5609.6227 437.98963 5454.9355 334.23633 C 5436.0485 321.56823 5378.8839 268.47139 5327.9023 216.24219 C 5276.9208 164.01289 5230.0079 118.187 5223.6504 114.4082 C 5206.0406 103.9412 5180.7659 105.82456 5161.4805 119.03906 C 5151.9278 125.58476 5121.2231 160.31289 5093.248 196.21289 C 4988.3436 330.83569 4989.3979 321.99996 5064.6562 435.88086 C 5090.9248 475.63024 5111.9361 510.45964 5115.0156 519.07422 C 5115.1045 519.85543 5115.1493 520.59854 5115.1289 521.29102 C 5107.0072 530.91319 4918.4964 661.66489 4804.7969 736.48242 C 4680.4595 818.29999 4606.0632 861.79435 4550.2852 885.27539 C 4514.5926 900.30095 4504.6553 901.92578 4448.4609 901.92578 C 4397.0478 901.92578 4381.696 899.84575 4360.416 890 C 4341.0473 881.03858 3800.1751 543.41192 3790.373 534.16406 C 3789.3572 533.20566 3811.2706 499.73631 3839.0684 459.78711 C 3866.8662 419.83791 3890.987 381.49157 3892.6719 374.57227 C 3899.2945 347.37447 3884.1694 314.10037 3822.5645 220.35547 C 3754.6596 117.02387 3743.8829 107.13672 3699.1602 107.13672 z M 3712.334 220.27539 C 3730.9321 220.27539 3765.6883 283.28395 3775.2734 334.37695 C 3776.2341 339.49772 3777.161 343.25757 3776.5742 348.05469 C 3776.1019 350.60893 3775.3559 353.3936 3774.3125 356.46094 C 3766.0629 377.60098 3733.3176 422.94945 3623.2715 576.65625 C 3429.4392 847.39126 3279.8852 1043.8781 3174.4062 1166.3828 C 3148.2876 1196.7176 3125.0142 1221.5371 3122.6895 1221.5371 C 3111.9593 1221.5371 2884.2949 901.74974 2884.2949 886.67773 C 2884.2949 885.06117 2886.7026 882.15207 2890.8125 878.50391 C 2894.4362 875.57615 2899.0917 872.00561 2904.5059 867.97266 C 2909.8712 864.25159 2915.9902 860.34626 2922.4785 856.56445 C 2988.7992 817.90862 3132.5057 719.58055 3232.1914 644.65039 C 3382.3106 531.8113 3466.1677 459.33772 3590.2832 335.16992 C 3653.4492 271.97722 3708.3722 220.27539 3712.334 220.27539 z M 5205.9355 221.21875 C 5211.8873 221.16033 5217.5759 223.62671 5223.0918 228.54883 C 5224.1402 229.5645 5225.2152 230.62615 5226.3242 231.74023 C 5229.1519 234.79443 5231.9374 238.49752 5234.6934 242.86328 C 5275.9963 308.29138 5390.4063 425.64554 5506.2461 521.40234 C 5636.3819 628.97667 5874.4435 795.08817 5999.7637 865.76367 C 6012.9628 873.20735 6023.8047 881.26494 6023.8047 883.66797 C 6023.8285 886.071 5970.6332 962.43801 5905.5918 1053.373 C 5840.5499 1144.308 5783.7379 1223.4452 5779.3438 1229.2344 C 5771.8122 1239.1573 5769.9548 1238.1868 5746.9121 1212.2656 C 5695.2476 1154.1466 5184.8201 461.1057 5129.3418 373.75 L 5113.6465 349.03516 L 5135.9141 304.74609 C 5164.1426 248.6024 5186.446 221.41004 5205.9355 221.21875 z M 3250.9766 512.70508 C 3253.6728 512.77095 3255.3509 513.41566 3256.3105 514.54492 C 3248.9899 530.89581 3168.8513 601.15745 3115.9102 636.4707 C 3045.9487 683.13698 2985.6097 711.06901 2884.2949 743.69141 C 2721.2062 796.20444 2675.4778 829.82494 2709.0645 872.52344 C 2718.3445 884.32109 2719.0479 887.94429 2712.7832 891.67188 C 2708.5337 894.20042 2700.5459 903.26822 2695.0312 911.82422 C 2684.2272 928.58729 2683.5448 926.42067 2711.7324 964.94531 C 2721.2877 978.00471 2707.3069 992.23697 2682.9043 994.29297 C 2670.7744 995.31487 2634.3882 991.81989 2602.0469 986.52539 C 2535.3895 975.61299 2482.5478 978.39056 2446.0605 994.72656 C 2418.4454 1007.0903 2404.6733 1021.8039 2395.3613 1048.8906 C 2390.5903 1062.7685 2382.1779 1072.4197 2369.1445 1078.9648 C 2308.0708 1109.6346 2214.2609 1319.7062 2119.9805 1636.9316 C 2104.198 1690.0348 2086.2392 1750.4773 2080.0723 1771.248 L 2068.8613 1809.0117 L 2005.3164 1834.4414 C 1924.5264 1866.7715 1875.039 1877.8271 1863.3809 1866.1504 C 1856.6275 1859.3862 1854.1646 1811.9363 1849.4453 1597.7188 C 1841.251 1225.7649 1830.3411 983.57051 1820.6289 958.02539 C 1814.2133 941.15105 1765.779 925.09917 1732.5742 928.8418 C 1686.842 933.99649 1659.2063 964.44221 1641.4707 1029.2051 C 1626.5396 1083.7274 1628.2355 1247.2322 1644.875 1357.3027 C 1667.2335 1505.2041 1677.9591 1547.5895 1718.5898 1648.6309 C 1764.4182 1762.5982 1792.5215 1848.1595 1792.5215 1873.7129 C 1792.5215 1902.334 1780.3603 1914.4598 1743.3926 1922.6914 C 1685.4461 1935.5941 1602.6437 1983.8156 1564.6348 2026.7949 C 1555.9694 2036.5935 1537.4975 2066.8665 1523.5859 2094.0684 C 1489.8156 2160.101 1393.1081 2374.6402 1362.9512 2450.4277 C 1345.1491 2495.1665 1333.6665 2515.6661 1319.3809 2528.209 C 1312.4603 2534.2853 1306.3317 2538.5978 1300.3242 2541.2109 C 1289.4938 2542.4072 1274.5237 2539.7659 1251.3613 2532.5117 C 1211.0515 2513.3098 990.45809 2425.1449 878.16406 2383.5098 C 711.99046 2321.8979 654.47704 2310.6361 623.39844 2333.6191 C 597.49524 2352.7752 590.78434 2372.2811 597.46094 2409.0273 C 598.3103 2413.7019 598.97118 2418.081 599.44531 2422.1758 C 598.19653 2441.4178 595.62988 2454.9019 591.40234 2462.8438 C 588.48892 2464.9722 584.86986 2466.0449 580.52539 2466.0449 C 547.06439 2466.0449 527.65812 2429.4789 532.54102 2375.6289 C 537.62882 2319.5201 560.60369 2289.9036 644.27539 2231.5957 C 670.66909 2213.2028 714.26861 2176.1061 741.16211 2149.1582 C 780.54221 2109.6983 794.52208 2090.9032 812.98828 2052.5879 C 853.58728 1968.3502 871.41097 1891.7826 893.19727 1708.0273 C 912.96587 1541.29 952.78819 1361.8623 1000.543 1224.3652 C 1029.4086 1141.2541 1097.3196 1009.5676 1140.5684 952.83789 C 1188.0214 890.59377 1230.7756 855.09244 1297.5469 822.49414 C 1380.2406 782.12242 1431.4711 771.98949 1552.1055 772.14844 C 1650.3078 772.2777 1656.979 773.03167 1739.6855 793.35742 C 1838.7871 817.71239 1909.0382 827.80363 1945.2578 822.88477 C 1959.2585 820.98339 1990.0072 812.73099 2013.5898 804.54688 C 2025.5926 800.38139 2037.573 797.03179 2047.1426 795.00195 C 2056.4409 793.80488 2063.531 793.71191 2068.6738 794.91797 C 2077.7935 802.35681 2077.3929 826.72684 2067.1113 851.33398 C 2057.7127 873.82807 2060.1949 885.45473 2075.2383 889.38867 C 2089.1418 893.02456 2106.8682 889.1405 2260.3457 848.82812 C 2559.5828 770.2306 2818.9671 683.31032 3126.4043 558.60938 C 3182.4667 535.86964 3231.4212 517.69528 3249.3125 512.74414 C 3249.4549 512.73696 3249.6199 512.71756 3249.7578 512.71289 C 3250.1854 512.69842 3250.5914 512.69567 3250.9766 512.70508 z M 5672.7363 515.63281 C 5679.5528 516.01714 5743.6141 537.98765 5818.4121 565.64258 C 6132.1491 681.6397 6424.9274 781.57908 6626.3047 841.41406 C 6794.5486 891.40413 6795.1172 891.52233 6812.4492 880.16602 C 6825.7265 871.46742 6826.8642 867.66557 6825.6367 836.15039 C 6825.4971 832.56539 6825.4128 829.25867 6825.3828 826.16211 L 6825.3828 826.05664 C 6825.3828 822.39447 6825.4347 819.06181 6825.5762 816.02148 C 6827.2375 787.35052 6839.6442 788.25914 6887.6035 807.21094 C 6954.6197 833.69344 6973.8784 834.44764 7087.3379 815.0332 C 7167.8547 801.25571 7226.5405 793.25577 7282.4785 789.4375 C 7309.4432 788.69954 7340.1603 788.37374 7377.3828 788.32812 C 7405.4476 788.29374 7428.78 788.31099 7448.5469 788.46484 C 7536.5536 792.05346 7568.5998 799.84429 7627.5684 828.23438 C 7681.3831 854.14337 7730.6212 900.43365 7774.541 966.40625 C 7886.14 1134.0415 7969.3925 1428.4505 8014.709 1815.7305 C 8026.5432 1916.8682 8046.1054 1990.1729 8080.3164 2061.5801 C 8106.4912 2116.2124 8125.8686 2137.3939 8177.2793 2167.5703 C 8259.8631 2216.0438 8333.8258 2289.0748 8352.0449 2340.1309 C 8372.1584 2396.4967 8352.4173 2446.849 8314.875 2434.9336 C 8305.139 2431.8436 8303.5605 2426.3741 8303.5605 2395.7168 C 8303.5605 2313.928 8250.9977 2303.427 8091.4297 2353.3398 C 7975.9767 2389.4534 7740.4513 2487.3282 7678.8125 2524.8066 C 7638.6675 2549.2162 7604.5619 2552.0553 7575.4512 2533.4102 C 7553.825 2519.5586 7547.9036 2507.5634 7445.8613 2270.8848 C 7404.2777 2174.4355 7362.2967 2079.5596 7352.5703 2060.0508 C 7322.7406 2000.221 7266.6079 1960.549 7186.332 1942.5586 C 7122.8508 1928.3319 7119.0058 1926.6221 7113.1758 1910.0449 C 7104.9241 1886.5805 7116.8503 1828.9142 7152.9336 1717.7988 C 7192.4236 1596.1924 7224.2801 1471.8926 7239.5254 1379.9297 C 7279.7682 1137.1769 7263.1571 1010.4926 7180.502 929.79492 C 7144.7162 894.85706 7125.4205 888.16815 7104.7227 903.52148 C 7085.456 917.81296 7077.3519 943.76872 7064.5957 1032.0332 C 7041.4586 1192.2005 7031.9368 1474.5407 7041.459 1718.877 C 7043.7514 1777.6628 7045.2475 1829.7105 7045.582 1858.5039 C 7044.966 1870.4623 7044.0432 1878.1772 7042.7949 1882.5996 C 7025.2866 1882.8403 6918.0889 1861.3848 6904.6348 1854.4531 C 6885.6391 1844.6666 6866.5957 1825.8213 6856.9395 1807.252 C 6847.3189 1788.7513 6804.3068 1666.2485 6719.3691 1415.4336 C 6688.5783 1324.5104 6655.6047 1234.7025 6646.0938 1215.8613 C 6617.6127 1159.4404 6596.2363 1140.0659 6527.7188 1108.5684 C 6523.2775 1106.5267 6516.9151 1095.4338 6513.5781 1083.916 C 6506.1444 1058.2561 6482.514 1032.5555 6452.0801 1017.0293 C 6430.2815 1005.9086 6425.5302 1005.6501 6352.1953 1011.6211 C 6226.009 1021.8954 6153.957 1017.6667 6153.957 999.98633 C 6153.957 996.65423 6161.5939 985.23024 6170.9277 974.59961 C 6192.456 950.08026 6193.6261 925.73852 6173.8984 912.8125 C 6161.0228 904.37604 6160.5046 902.436 6167.4473 888.64062 C 6199.3389 825.27153 6177.3443 801.10918 6045.375 754.54297 C 5941.9909 718.06322 5883.1136 689.78263 5812.9805 642.91602 C 5759.233 606.99866 5662.0078 519.07881 5672.2578 515.66211 C 5672.357 515.62905 5672.5164 515.62041 5672.7363 515.63281 z M 5164.3438 579.8125 C 5164.4404 579.7932 5164.5078 579.79349 5164.5449 579.81641 C 5166.9178 581.28291 5185.8266 609.51166 5206.5645 642.54688 L 5244.2695 702.61133 L 5231.0098 715.41211 C 5214.5247 731.32507 4896.8853 980.65631 4804.7969 1049.9688 C 4700.7975 1128.2457 4596.4242 1196.6819 4560.2539 1210.3105 C 4501.2184 1232.5545 4384.3036 1229.2903 4337.2051 1204.084 C 4327.1748 1198.7159 4090.6696 1028.697 3707.832 751.67969 C 3681.9142 731.43609 3666.3475 718.39702 3665.4453 715.80469 C 3667.751 710.17129 3683.4558 684.55459 3702.4414 655.57812 C 3716.2688 634.47424 3726.4706 620.16173 3734.0312 611.44531 C 3740.0017 606.396 3745.0634 604.02656 3749.4004 604.16406 C 3751.9415 604.24462 3762.0539 609.36553 3777.5449 618.16602 C 3824.1435 647.66798 3922.6871 711.7847 4034.0898 785.24023 C 4185.7852 885.26354 4319.428 970.84029 4331.0742 975.41016 C 4416.0481 1008.7529 4523.7348 1007.8561 4591.4297 973.24219 C 4602.9991 967.32654 4735.7117 875.78573 4886.3477 769.81836 C 5034.6299 665.50678 5158.2533 581.02818 5164.3438 579.8125 z M 5278.3477 765.43945 C 5288.4712 777.65157 5344.2714 855.39634 5409.8926 948.84375 C 5589.8534 1205.1161 6098.9493 1926.3258 6147.7188 1994.084 C 6171.8525 2027.6143 6186.1271 2051.7702 6191.1426 2070.2812 C 6194.1162 2085.6888 6191.0116 2098.085 6182.0391 2109.7988 C 6178.1805 2113.5922 6173.342 2117.1341 6167.5312 2120.5625 C 6124.2896 2146.0754 6113.1537 2216.2403 6134.0156 2331.7031 C 6145.9109 2397.5355 6141.4639 2424.8128 6111.6602 2468.875 C 6085.0283 2508.248 6069.0862 2574.3709 6069.1602 2645.1797 C 6069.2179 2703.2653 6071.7524 2711.5922 6109.3496 2777.1719 C 6110.5078 2779.1919 6111.5314 2781.0895 6112.4551 2782.9551 C 6115.2611 2794.7306 6117.117 2808.7571 6118.6484 2827.8828 C 6118.4123 2835.7098 6117.9552 2844.9651 6117.3027 2856.3691 C 6112.0752 2947.7364 6127.4722 2993.9768 6188.4141 3069.9375 C 6224.1297 3114.4558 6231.1252 3134.9321 6225.2461 3177.748 C 6211.2148 3279.933 6215.9478 3315.9405 6251.0605 3374.1582 C 6258.7968 3386.9851 6263.8562 3395.6076 6266.9434 3402.3672 C 6268.8598 3408.3201 6270.1748 3413.6285 6270.8652 3418.2832 C 6270.7338 3422.8756 6269.4787 3427.6389 6267.5273 3434.1523 C 6266.0052 3439.2328 6264.1879 3443.9118 6262.3848 3447.6328 C 6260.8799 3449.9765 6259.2195 3452.5063 6257.3516 3455.2812 C 6256.8091 3455.7314 6256.3046 3455.9961 6255.8652 3455.9961 C 6251.9273 3455.9961 4701.3452 5444.547 4555.4277 5636.5703 C 4546.113 5647.9974 4538.3197 5657.4331 4531.6309 5665.4297 C 4521.8027 5675.613 4511.7723 5684.0243 4505.2422 5687.123 C 4497.2856 5690.8987 4489.2035 5694.073 4484.6387 5695.3145 C 4480.1974 5695.117 4475.8609 5694.2595 4471.5293 5692.709 C 4451.906 5682.1326 4417.2867 5642.7144 4334.6172 5539.1719 C 4273.1184 5462.1454 3880.6341 4973.059 3462.4297 4452.3125 C 2608.3466 3388.8117 2642.2216 3431.5203 2637.3477 3412.1016 C 2634.8567 3402.1765 2638.9957 3387.1979 2650.8945 3363.0684 C 2683.8967 3296.1435 2687.8834 3236.3299 2663.1719 3178.8867 C 2652.45 3153.9628 2651.6197 3147.0357 2657.1387 3128.6152 C 2660.7609 3116.5253 2672.951 3098.8019 2685.2207 3087.7871 C 2712.2789 3063.4964 2734.1809 3026.533 2752.8516 2973.6504 C 2765.5589 2937.6589 2767.3602 2923.2089 2767.8145 2853.541 L 2768.2969 2779.4316 C 2768.9264 2776.5258 2769.624 2773.8271 2770.3926 2771.2539 L 2792.1836 2738.627 C 2819.6624 2697.4801 2825.0324 2677.5979 2824.5527 2618.7812 C 2824.1098 2564.4498 2801.3214 2491.3878 2770.7832 2446.3926 C 2745.3698 2408.9484 2744.3709 2401.1237 2759.5098 2358.0508 C 2774.1689 2316.3432 2779.5382 2250.8495 2771.7578 2208.6582 C 2762.9929 2161.1276 2736.2798 2109.2379 2714.1992 2096.8496 C 2702.0574 2090.0372 2698.2217 2086.1869 2698.1934 2077.0977 C 2699.8604 2068.6187 2705.0901 2056.4285 2715.5469 2037.9395 C 2743.4987 1993.5983 2807.5817 1901.5041 2915.4277 1750.4531 C 3033.1597 1585.5558 3238.8389 1297.2685 3372.4922 1109.8145 C 3506.1456 922.36032 3617.0763 769.0638 3619.0059 769.1543 C 3620.9355 769.24498 3758.7033 869.99396 3925.1562 993.04102 C 4363.1622 1316.8283 4336.9904 1300.1857 4428.2383 1312.9453 C 4482.4914 1320.5318 4554.5094 1309.1662 4605.543 1284.9629 C 4629.642 1273.5337 4740.5164 1188.6238 4957.0137 1015.7988 C 5107.4666 895.69572 5235.1874 794.72503 5268.1875 769.6875 C 5272.8574 767.05498 5276.0497 765.77951 5278.3477 765.43945 z M 5963.4277 1080.1172 L 6011.9531 1080.1172 L 6077.3828 1082.4121 C 6077.5452 1082.4178 6077.7144 1082.4259 6077.877 1082.4316 C 6154.1909 1087.224 6274.0624 1098.872 6368.5996 1111.2188 C 6418.6254 1117.752 6429.2185 1120.9445 6437.7383 1132.0527 C 6453.6256 1152.7679 6501.462 1264.5914 6551.0352 1396.9004 C 6605.9712 1543.521 6770.8185 2036.7774 6766.9668 2043.0098 C 6765.4615 2045.4456 6753.5606 2046.8851 6740.5215 2046.209 C 6727.4819 2045.5328 6649.6978 2043.6241 6567.666 2041.9668 L 6433.377 2039.2539 C 6422.6747 2036.1896 6410.905 2027.9056 6383.7168 1998.1367 C 6347.2814 1953.5811 6249.6501 1832.5527 6140.7637 1696.8691 C 6017.1795 1542.8717 5902.9472 1401.2055 5875.2871 1367.5957 C 5851.1288 1335.446 5836.3191 1314.4711 5833.9121 1308.5684 C 5834.8155 1296.9332 5853.0525 1262.8153 5896.9863 1190.0938 L 5963.4277 1080.1172 z M 2869.7715 1110.8379 C 2873.387 1110.8261 2876.8479 1110.826 2880.1406 1110.8379 C 2897.5386 1110.9009 2910.1933 1111.3066 2916.3945 1112.1211 C 2922.5432 1114.957 2929.2761 1119.5793 2936.3945 1125.834 C 2948.5528 1139.0722 2966.2623 1163.3632 2994.2949 1204.5664 C 3020.9032 1243.6762 3043.5865 1280.7744 3051.2227 1297.1328 C 3052.3463 1299.9061 3053.2566 1302.4084 3053.9395 1304.6172 C 3053.9501 1304.7299 3053.9744 1304.8631 3053.9746 1304.9609 C 3053.9891 1311.9523 3045.5228 1327.2242 3035.1602 1338.9004 C 3024.7977 1350.5766 2942.8742 1454.3166 2853.1094 1569.4336 C 2496.0372 2027.3533 2495.674 2027.7066 2372.3496 2036.627 C 2310.4044 2041.1077 2226.6723 2041.4956 2164.1719 2037.5918 C 2136.407 2035.8576 2131.81 2034.0633 2134.3086 2025.9336 C 2135.9328 2020.6489 2148.6229 1978.1417 2162.5078 1931.4727 C 2243.13 1660.4906 2338.7171 1390.1576 2420.5371 1201.7383 C 2434.0543 1170.6104 2446.0056 1143.8165 2450.2539 1135.0117 C 2452.3055 1133.0486 2454.4901 1131.4952 2456.9414 1130.2324 C 2496.5244 1122.7217 2757.6919 1111.2037 2869.7715 1110.8379 z M 1767.3223 1120.6055 C 1767.8699 1120.6208 1768.4193 1120.6753 1768.9707 1120.7539 C 1771.4656 1121.3897 1773.7881 1122.9399 1775.8633 1125.4473 C 1780.4199 1135.8945 1781.209 1171.7347 1781.209 1291.2402 C 1781.209 1382.6639 1779.5731 1473.1123 1777.5742 1492.2363 C 1775.9515 1507.7623 1773.3919 1520.9955 1771.3184 1525.4258 C 1770.8398 1526.08 1770.3681 1526.6033 1769.9082 1526.9746 C 1767.594 1526.2633 1756.7257 1485.2022 1745.6016 1435.084 C 1728.4297 1357.719 1720.1544 1320.226 1717.0781 1295.4336 C 1716.3411 1287.0361 1715.8578 1278.9735 1715.6152 1271.1836 C 1715.8044 1260.9289 1717.1001 1251.3812 1718.9297 1238.3008 C 1729.5433 1162.4183 1747.1199 1120.0405 1767.3223 1120.6055 z M 7137.8828 1125.7324 C 7143.973 1125.7484 7151.055 1128.957 7156.8438 1135.3535 C 7166.2242 1145.719 7172.4622 1167.4897 7175.4902 1200.2363 C 7177.2426 1227.2317 7177.5297 1260.5927 7176.373 1290.9551 C 7173.1154 1336.9444 7163.1825 1376.4428 7143.1621 1426.5996 C 7133.5377 1450.7111 7123.0912 1470.4395 7119.9473 1470.4395 C 7114.2265 1470.4395 7118.8464 1156.4455 7124.8789 1135.2695 C 7126.6953 1128.893 7131.7927 1125.7164 7137.8828 1125.7324 z M 4045.248 1493.5176 C 3928.3378 1493.53 3799.9038 1495.2132 3779 1498.1855 C 3762.3949 1500.5467 3746.5232 1506.0879 3743.7305 1510.5 C 3740.9378 1514.9121 3738.6144 1534.2494 3738.5664 1553.4707 L 3738.4805 1588.418 L 3822.7578 1590.2402 C 3918.6153 1592.3123 3925.3296 1595.0519 3935.4883 1636.25 C 3938.7017 1649.2813 3943.1494 1758.5848 3945.373 1879.1465 L 3949.416 2098.3496 L 3993.6348 2098.3496 C 4065.5973 2098.3496 4060.8595 2115.3731 4061.248 1855.4531 C 4061.4273 1735.4781 4063.3736 1627.1345 4065.5742 1614.6895 L 4069.5762 1592.0625 L 4164.7129 1589.2324 C 4275.3286 1585.9438 4275.8809 1585.6615 4275.8809 1532.3887 L 4275.8809 1500.3359 L 4241.1113 1496.7012 C 4220.1374 1494.5089 4136.1782 1493.5079 4045.248 1493.5176 z M 4404.4199 1504.3809 C 4386.5552 1504.3809 4369.5156 1507.916 4361.9922 1513.1855 L 4349.4199 1521.9922 L 4349.4199 1810.1719 L 4349.4199 2098.3496 L 4391.8477 2098.3496 L 4434.2734 2098.3496 L 4434.2734 1931.332 L 4434.2734 1764.3164 L 4449.8301 1758.3965 C 4458.3861 1755.1405 4495.0974 1752.0209 4531.4102 1751.4648 C 4590.4732 1750.5602 4599.1195 1751.7019 4613.4336 1762.2969 C 4640.1127 1782.0441 4642.9105 1800.1677 4643.2578 1955.5137 L 4643.5762 2098.3496 L 4686.2441 2098.3496 L 4728.9121 2098.3496 L 4727.2559 1932.4297 L 4725.6016 1766.5078 L 4708.4414 1738.7676 C 4695.3068 1717.5343 4683.4567 1707.0293 4657.9102 1693.9727 C 4625.6294 1677.4746 4622.1138 1676.929 4550.6172 1677.375 C 4509.9624 1677.6286 4467.1535 1679.6542 4455.4863 1681.875 L 4434.2734 1685.9121 L 4434.2734 1595.1465 L 4434.2734 1504.3809 L 4404.4199 1504.3809 z M 5001.4199 1670.1953 C 4960.9547 1670.1822 4920.9351 1676.6352 4889.9844 1690.3262 C 4821.4609 1720.6374 4789.6347 1806.1729 4802.0566 1926.6465 C 4812.6583 2029.4675 4859.812 2079.5179 4960.3613 2094.6777 C 5007.7031 2101.8154 5151.8203 2095.4512 5161.4746 2085.7969 C 5166.913 2080.3585 5171.1166 2042.6813 5167.7715 2029.3535 C 5164.4985 2016.3129 5164.4836 2016.3117 5075.373 2018.3652 C 4976.4678 2020.6444 4934.5933 2014.4638 4916.248 1994.8789 C 4903.9692 1981.7705 4890.3365 1951.5288 4894.7266 1947.1387 C 4896.1373 1945.728 4929.9372 1938.5691 4969.8379 1931.2305 C 5159.7284 1896.3056 5186.5367 1881.3267 5191.2363 1807.5215 C 5194.1169 1762.2816 5185.6237 1735.9061 5161.2969 1714.5469 C 5128.7536 1685.9735 5064.5457 1670.2157 5001.4199 1670.1953 z M 5008.1543 1742.3145 C 5010.1048 1742.3033 5012.0878 1742.3037 5014.1016 1742.3184 C 5071.2546 1742.7337 5091.605 1751.069 5100.2988 1777.6211 C 5106.0937 1795.3196 5105.9179 1802.539 5099.3086 1818.3574 C 5089.7527 1841.2278 5069.8477 1848.1965 4962.5605 1866.2227 C 4924.8796 1872.5538 4892.1276 1877.7324 4889.7773 1877.7324 C 4883.377 1877.7324 4892.5616 1803.5049 4900.9785 1787.209 C 4917.3675 1755.4784 4947.6893 1742.6591 5008.1543 1742.3145 z M 6860.3672 1925.373 C 6875.321 1925.1949 6900.7303 1928.7147 6953.6367 1937.0898 C 7059.9069 1953.9127 7121.4668 1971.033 7178.1094 1999.5156 C 7241.641 2031.4624 7267.7847 2056.3429 7300.3066 2115.8105 C 7346.4416 2200.1693 7411.9542 2376.9193 7452.7871 2527.1973 C 7477.1789 2616.9664 7491.5843 2638.3612 7581.1074 2717.7754 C 7609.7339 2743.1692 7619.2832 2767.6657 7631.3555 2846.6895 C 7633.9219 2863.4852 7635.7369 2901.0537 7636.8125 2947.4707 C 7637.1603 2981.1767 7637.1449 3020.6855 7637.082 3067.6562 C 7637.0173 3116.0427 7636.8324 3154.5572 7636.4082 3185.7012 C 7635.2754 3226.9432 7633.5373 3260.2472 7631.1855 3276.4941 C 7617.006 3374.4523 7559.3289 3434.9115 7451.2383 3465.1211 L 7451.2363 3465.1211 C 7413.5939 3475.6417 7249.9105 3481.2974 7217.7207 3473.1895 C 7197.9008 3468.1974 7183.5039 3454.438 7183.5039 3440.4902 C 7183.5039 3425.1936 7200.3351 3401.6004 7234.7812 3368.6113 C 7295.4153 3310.5419 7307.9226 3264.6355 7285.3262 3183.0938 C 7282.7328 3173.735 7280.5701 3165.1041 7278.8535 3157.0801 C 7278.0537 3149.5521 7277.2874 3142.1404 7276.6191 3135.3457 L 7274.3164 3111.9297 C 7276.0884 3084.1577 7289.0877 3064.5833 7315.8633 3041.4668 C 7371.2677 2993.6345 7378.4001 2954.4072 7344.6055 2883.3945 C 7330.0645 2852.838 7323.5583 2831.0762 7322.957 2810.9824 C 7322.758 2804.3348 7322.6843 2799.1754 7323.0039 2794.8789 C 7324.0301 2789.6354 7325.5927 2784.6852 7327.709 2779.9824 C 7331.0997 2775.0285 7336.678 2770.1357 7345.7148 2762.625 C 7360.0679 2750.6956 7373.1005 2733.1331 7378.9355 2717.8535 C 7398.4584 2666.7342 7377.3235 2581.6367 7333.3262 2534.2148 C 7299.5627 2497.8229 7286.9984 2472.861 7293.416 2447.7148 C 7294.686 2443.9332 7296.2221 2439.8417 7297.9707 2435.5625 C 7301.0994 2429.1514 7305.3833 2422.6141 7310.832 2415.7598 C 7338.5421 2380.901 7344.9823 2353.8069 7336.9512 2305.8711 C 7328.0785 2252.9127 7317.1472 2232.923 7298.3008 2235.1836 C 7290.2364 2236.1509 7281.8734 2240.7608 7279.7148 2245.4277 C 7269.0707 2268.4397 7261.0616 2284.2213 7252.666 2297.1211 C 7245.5522 2306.3039 7237.5012 2316.1669 7229.3496 2325.6367 C 7224.6311 2330.3484 7219.3941 2335.1837 7213.4004 2340.4785 C 7170.6227 2378.2687 7160.7136 2401.6914 7171.8203 2438.7637 C 7177.1344 2456.4995 7192.787 2476.3184 7234.5742 2518.2227 C 7296.3889 2580.2105 7311.6859 2607.7245 7306.3691 2647.3652 C 7302.5654 2675.7229 7286.0749 2700.3548 7253.5605 2726.252 C 7224.7886 2749.1679 7209.2296 2777.5272 7214.3145 2797.7852 C 7216.2463 2805.4836 7227.8033 2822.6046 7239.9961 2835.832 C 7266.6699 2864.7697 7274.031 2882.4819 7273.957 2917.5488 C 7273.8976 2946.0078 7254.5279 2994.6816 7237.5234 3009.1035 C 7232.0204 3013.7705 7214.5873 3023.9523 7198.7812 3031.7305 C 7163.2069 3049.2362 7146.9902 3070.3754 7146.9902 3099.2422 C 7146.9902 3116.9973 7151.4312 3125.832 7171.0605 3147.127 C 7199.4103 3177.8831 7206.1309 3193.2742 7206.1309 3227.4434 C 7206.1309 3258.8963 7195.9786 3283.7885 7172.0195 3311.0762 C 7151.4054 3334.5543 7125.1747 3349.8425 7092.3086 3357.2695 C 7074.5744 3359.6968 7051.4302 3361.0778 7020.1133 3361.8926 C 7013.3643 3361.4712 7006.4345 3360.8603 6999.3008 3360.041 C 6963.701 3355.9527 6926.1516 3356.1114 6872.377 3360.5762 C 6859.2892 3361.6628 6846.1806 3362.5327 6833.0879 3363.209 C 6760.631 3363.2112 6703.9721 3362.509 6657.7695 3360.4746 C 6514.9177 3348.4369 6397.5955 3313.0028 6365.627 3265.3867 C 6341.8716 3230.0045 6344.1232 3163.569 6369.7324 3144.252 C 6396.3954 3124.14 6425.3939 3120.7351 6589.5332 3118.4355 C 6762.3303 3116.0147 6791.2774 3119.0065 6815.8066 3141.8301 C 6834.4912 3159.2151 6859.3532 3163.8576 6891.0469 3155.877 C 6920.8144 3148.3815 6932.7072 3137.2835 6942.9688 3107.4355 C 6956.7488 3067.351 6934.7688 3040.4488 6876.209 3025.7266 C 6851.2402 3019.4493 6846.4842 3020.0125 6820.0938 3032.3711 L 6801.334 3041.1562 C 6787.5085 3043.3654 6767.6635 3044.8711 6737.4922 3045.873 L 6556.0469 3045.873 L 6320.832 3045.873 L 6294.3828 3030.3242 C 6274.3253 3018.5335 6264.4831 3007.5965 6253.6621 2985.0703 C 6234.448 2945.0717 6223.9718 2891.2278 6230.7832 2867.4785 C 6239.9931 2835.3638 6256.9786 2828.0639 6358.4727 2812.5938 C 6436.6465 2800.6779 6472.8026 2798.3822 6592.3613 2797.7363 C 6745.9523 2796.9067 6790.5601 2801.6937 6846.9199 2825.0586 C 6866.8145 2833.3063 6892.215 2839.1847 6908.2969 2839.2637 C 6931.9007 2839.3792 6938.3477 2836.7829 6954.459 2820.6719 C 6993.9569 2781.1743 6991.7085 2729.8292 6949.5332 2708.1738 C 6929.3846 2697.8282 6918.6161 2696.439 6872.377 2698.2207 C 6842.8199 2699.3596 6697.7208 2700.4073 6549.9355 2700.5488 C 6288.3869 2700.799 6280.6324 2700.4911 6258.6074 2689.0176 C 6223.0026 2670.4699 6208.4327 2638.8863 6208.0254 2579.3965 C 6207.6407 2522.8289 6216.0421 2498.1019 6238.8652 2488.6484 C 6252.7964 2482.8779 6259.6627 2484.1265 6290.707 2498.0645 C 6324.1718 2513.0893 6331.0709 2514.0927 6397.2012 2513.5762 C 6446.4866 2513.1916 6497.9068 2508.0511 6566.9062 2496.6074 C 6689.7251 2476.2375 6772.0028 2476.0753 6876.7734 2495.998 C 6953.7117 2510.6282 6967.9091 2508.4743 6991.4043 2478.6055 C 7006.3333 2459.6262 7005.3606 2447.7067 6987.1133 2426.0215 C 6958.7057 2392.2608 6931.686 2384.714 6829.9492 2382.1289 C 6732.3503 2379.649 6580.4238 2388.7995 6507.5098 2401.5488 C 6412.6625 2418.1333 6326.7623 2408.6649 6289.7852 2377.5508 C 6264.2088 2356.0299 6256.9837 2337.85 6252.6172 2284.0332 C 6248.2705 2230.4624 6254.026 2203.4947 6276.125 2173.8828 C 6301.2839 2140.1709 6329.1832 2131.9863 6458.418 2120.4082 C 6695.1766 2099.1969 6913.235 2100.4898 7010.9688 2123.6855 C 7041.6997 2130.979 7045.5781 2130.8619 7051.9805 2122.4492 C 7064.4443 2106.0713 7060.3993 2083.5186 7042.2578 2068.2539 C 7022.2648 2051.4308 6991.0226 2040.6766 6914.8027 2024.3848 C 6882.5988 2017.5012 6861.9117 2012.1555 6848.3086 2006.1523 C 6844.3059 2004.2652 6840.7976 2002.3666 6837.7129 2000.4238 C 6829.0978 1994.5422 6825.0537 1987.6084 6822.4941 1978.0703 C 6816.047 1954.0475 6821.8337 1938.8913 6841.0625 1929.4375 C 6846.1861 1926.9185 6851.3949 1925.48 6860.3672 1925.373 z M 2030.8496 1929.6523 C 2060.6857 1929.8617 2075.3652 1940.6685 2075.3652 1962.3125 C 2075.3652 1990.7125 2056.7207 2003.3264 2000.5488 2012.9316 C 1914.3436 2027.6724 1841.6705 2061.0693 1834.6133 2089.1875 C 1829.2247 2110.6571 1833.9249 2123.947 1846.4785 2122.7324 C 1852.5818 2122.1419 1907.2151 2115.8551 1967.8848 2108.7617 C 2112.4471 2091.8596 2406.5432 2089.9185 2478.5898 2105.3906 C 2596.7051 2130.7559 2641.8254 2176.1287 2643.1641 2270.8848 C 2643.85 2319.4383 2632.4712 2353.7131 2607.9551 2376.9355 L 2587.3105 2396.4902 L 2542.0566 2392.0723 C 2517.1665 2389.6425 2463.7082 2387.4149 2423.2617 2387.123 C 2382.8152 2386.831 2317.9026 2384.0207 2279.0117 2380.877 C 2080.9042 2364.863 1916.0484 2381.2466 1876.4062 2420.8887 C 1858.6535 2438.6418 1854.9283 2465.7726 1868.6777 2477.1836 C 1882.9692 2489.0445 1939.5474 2490.1459 2001.8262 2479.7754 C 2045.6646 2472.4756 2104.6878 2469.3052 2230.6719 2467.498 C 2312.8191 2467.1289 2393.61 2468.3502 2452.5938 2471.0312 C 2492.9149 2474.18 2524.0039 2479.2307 2552.9648 2486.6133 C 2659.1384 2513.6785 2696.9039 2571.3677 2660.9277 2651.5332 C 2647.7538 2680.8887 2639.3935 2695.0547 2622.7051 2703.2832 C 2619.002 2704.9531 2614.9688 2706.4715 2610.6016 2707.877 C 2600.3685 2710.8594 2587.4686 2712.8981 2570.3301 2715.0684 C 2478.4869 2726.6987 2373.1339 2723.4227 2227.1914 2704.3965 C 2153.5765 2694.7994 2082.2994 2684.4004 2068.7988 2681.2871 C 2037.2353 2674.0086 1981.6937 2673.8014 1957.043 2680.8711 C 1913.6448 2693.3175 1896.8574 2729.8622 1913.9629 2774.6523 C 1919.2721 2788.5544 1929.1221 2803.0598 1935.8516 2806.8848 C 1955.2854 2817.9309 2047.7579 2814.2434 2107.5918 2800.0371 L 2156.0332 2788.5352 C 2158.5167 2788.3988 2161.0158 2788.3063 2163.5547 2788.2617 L 2246.1836 2800.3438 C 2318.2408 2810.8801 2359.7767 2813.1446 2493.9727 2813.8535 L 2655.1934 2814.7051 L 2665.4062 2834.123 C 2671.5125 2845.7325 2674.5558 2858.1164 2674.3984 2872.2852 C 2674.1629 2877.702 2673.6442 2883.3105 2672.8613 2889.0566 C 2669.3122 2910.4596 2659.6421 2935.9314 2643.4121 2968.1035 C 2623.0702 3008.4262 2610.275 3026.78 2595.7969 3036.3945 C 2590.4413 3039.9511 2586.8703 3042.6237 2582.5117 3044.4336 L 2514.8398 3043.9121 C 2497.407 3042.2438 2475.4901 3039.9907 2446.8516 3037.084 C 2387.655 3031.0758 2348.5433 3031.0361 2234.7188 3036.8672 C 2183.012 3039.516 2145.7247 3040.876 2119.1367 3040.9902 C 2115.0804 3040.9714 2111.6676 3040.966 2107.7949 3040.9512 C 2089.3396 3040.7414 2077.1487 3039.7666 2069.709 3038.0117 C 2032.6552 3029.2715 1965.2222 3030.3296 1942.0449 3040.0137 C 1916.5123 3050.6819 1904.363 3077.2673 1911.1895 3107.5352 C 1923.4272 3161.7955 1936.5349 3173.2002 1986.5352 3173.0859 C 2021.1341 3173.007 2058.8077 3163.5664 2108.3164 3142.5703 C 2155.8891 3122.3953 2241.4447 3114.7372 2385.9023 3117.7246 C 2517.2127 3120.4401 2534.7858 3125.1228 2544.4629 3159.9727 C 2546.5951 3167.6517 2548.1192 3176.8796 2549.0801 3186.6191 C 2549.3068 3192.6102 2549.3828 3199.1504 2549.3828 3206.3047 C 2549.3828 3227.1745 2548.2196 3243.2432 2544.4727 3256.3496 C 2535.6425 3279.574 2511.8739 3302.1744 2491.7637 3306.4434 C 2482.0894 3308.4969 2460.4358 3316.3939 2443.6445 3323.9922 C 2376.7118 3354.2802 2288.9306 3368.3602 2147.666 3370.7227 C 2126.2796 3370.9036 2103.0396 3370.9661 2077.3828 3370.9453 C 2070.7676 3370.94 2064.8346 3370.9102 2058.5137 3370.8945 C 1907.5219 3369.5899 1817.0521 3361.4751 1783.7793 3346.2715 C 1685.787 3301.4953 1654.5585 3208.1956 1713.6348 3136.7051 C 1751.4569 3090.9351 1750.6689 3065.0276 1710.6191 3037.4727 C 1679.2381 3015.8819 1659.1316 2989.9282 1645.0273 2952.8086 C 1624.6012 2899.0515 1631.3951 2871.8379 1676.1035 2828.3203 C 1710.4455 2794.893 1711.1092 2777.5005 1678.8652 2755.9062 C 1564.4167 2679.2589 1566.3423 2606.5732 1685.9629 2488.0352 C 1722.8385 2451.4933 1741.6113 2428.6899 1741.6113 2420.4375 C 1741.6113 2401.6986 1721.7919 2373.3637 1696.3555 2355.7363 C 1665.3538 2334.252 1651.1932 2309.0294 1646.541 2267.0059 C 1642.9733 2234.7784 1641.1704 2231.0416 1626.7598 2225.9785 C 1591.6572 2213.6452 1577.7565 2239.6947 1577.6445 2318.0176 C 1577.5755 2366.3681 1580.0963 2383.8056 1592.2324 2418.9668 C 1612.6616 2478.1556 1609.2955 2491.2111 1563.0859 2532.0332 C 1515.4594 2574.1068 1492.709 2617.3166 1492.709 2665.6973 C 1492.709 2711.7288 1502.5945 2742.1829 1520.5879 2751.5879 C 1540.712 2762.1065 1564.3029 2788.0707 1571.8281 2807.9824 C 1577.4118 2822.7568 1575.7396 2829.18 1557.1133 2864.5508 C 1539.6213 2897.7676 1535.6703 2911.6713 1533.5215 2947.5488 C 1530.057 3005.392 1537.8358 3026.1098 1577.8027 3065.4609 C 1601.9823 3089.2681 1611.7077 3103.4353 1614.6562 3119.1523 C 1618.5616 3139.969 1616.7956 3148.3502 1597.3633 3201.2578 C 1580.0846 3248.3021 1601.8204 3304.2939 1662.0703 3367.9492 C 1684.0387 3391.1592 1702.0117 3414.2308 1702.0117 3419.2188 C 1702.0117 3424.3245 1692.7414 3432.2288 1680.7988 3437.3047 C 1650.8047 3450.0529 1448.3326 3453.6154 1398.627 3442.2695 C 1361.1145 3433.7069 1337.9726 3425.7373 1321.5879 3406.2988 C 1316.7917 3400.2444 1312.4431 3393.3012 1308.4258 3385.2969 C 1295.4891 3358.0028 1286.9726 3315.7701 1275.3945 3246.6914 C 1265.79 3189.3876 1259.1584 3140.9119 1255.1289 3096.959 C 1254.0968 3068.7168 1253.7049 3036.2814 1253.7129 2995.6582 C 1253.7219 2951.8996 1254.1607 2917.253 1255.8691 2888.5371 C 1265.6903 2801.0692 1289.5467 2753.9864 1346.7266 2695.4199 C 1399.9126 2640.9442 1421.6775 2600.5032 1433.1992 2534.7383 C 1458.2809 2391.5758 1560.4124 2149.2976 1626.4336 2076.3418 C 1651.595 2048.5375 1664.6077 2039.6276 1704.3711 2022.9824 C 1809.2724 1979.0697 1948.6555 1937.3203 2012.7129 1930.625 C 2019.2807 1929.9385 2025.3244 1929.6136 2030.8496 1929.6523 z M 8139.6836 2401.248 C 8158.6002 2401.248 8167.4556 2407.2537 8222.3164 2457.2773 C 8324.8186 2550.7424 8425.7467 2655.7833 8438.6387 2682.4141 C 8454.2063 2714.5725 8454.0244 2734.5625 8438.0664 2745.7402 C 8431.1515 2750.5834 8421.347 2754.5449 8416.2773 2754.5449 C 8411.2071 2754.5449 8378.9663 2740.7575 8344.6309 2723.9062 C 8310.2955 2707.0552 8257.098 2683.5082 8226.4141 2671.5801 L 8206.293 2663.7578 L 8197.3828 2659.6562 L 8195.7402 2659.6562 L 8170.625 2649.8926 L 8043.3457 2650.9492 C 7973.3422 2651.53 7895.0395 2654.4318 7869.3398 2657.3984 C 7865.0163 2657.8975 7860.7768 2658.3074 7856.6133 2658.6484 C 7816.608 2657.6716 7791.7101 2655.8126 7777.332 2652.3594 C 7768.0814 2648.6705 7762.4735 2643.7017 7761.5996 2637.627 C 7761.4601 2636.657 7761.4281 2635.7057 7761.5137 2634.7559 C 7762.4474 2632.1679 7763.9846 2629.3174 7765.9688 2626.1719 C 7766.1787 2625.839 7766.4655 2625.4637 7766.8145 2625.0527 C 7773.1945 2618.4267 7786.0851 2609.8606 7809.6816 2595.7129 C 7902.8568 2539.8483 8033.8482 2458.7372 8082.0098 2427.3711 C 8105.6136 2414.4164 8123.9716 2405.0731 8133.3789 2401.5996 C 8135.4741 2401.3757 8137.5772 2401.248 8139.6836 2401.248 z M 757.8457 2432.2285 C 806.806 2431.9944 882.26682 2466.1614 986.41992 2535.7227 C 1047.3739 2576.4322 1115.398 2626.5585 1128.2852 2639.8477 C 1122.1648 2641.769 1090.5484 2644.1902 1044.9199 2646.459 C 1018.2282 2646.8555 987.27623 2647.0995 953.89453 2647.1074 C 856.66733 2647.1309 760.57096 2649.7606 740.34766 2652.9512 C 670.35966 2663.9935 581.9864 2699.7797 526.2832 2739.6348 C 505.3811 2754.59 495.69587 2757.5076 461.23047 2759.2266 C 456.32981 2759.471 451.57739 2759.5943 447.05078 2759.6406 C 431.18808 2759.5623 421.99269 2759.1285 416.66797 2757.0938 C 416.60626 2757.0468 416.53944 2757.0009 416.49219 2756.9531 C 414.15869 2754.592 412.2367 2744.8099 412.2207 2735.2168 C 412.21617 2732.4914 412.46002 2729.9553 413.09766 2727.416 C 417.1442 2719.8398 424.793 2709.7298 437.32227 2695.6367 C 442.5048 2690.6794 448.65538 2685.029 456.06055 2678.3789 C 480.18885 2656.7111 541.02345 2597.5255 591.24805 2546.8535 C 689.06365 2448.1667 711.9073 2432.448 757.8457 2432.2285 z M 5381.7969 2531.7383 C 5251.7877 2531.6191 5167.3314 2575.962 5124.7715 2666.6875 C 5099.8874 2719.733 5093.547 2755.1515 5094.3633 2836.5703 C 5096.0879 3008.5962 5153.9678 3099.5014 5281.4434 3130.3984 C 5326.3059 3141.2722 5447.035 3141.4913 5488.1836 3130.7734 C 5618.0302 3096.9527 5674.9846 3006.5384 5675.2969 2833.7402 C 5675.5018 2720.4025 5655.5053 2657.2923 5602.6328 2604.4199 C 5551.4149 2553.2019 5486.4922 2531.8343 5381.7969 2531.7383 z M 3821.1973 2533.9961 C 3805.0773 2533.8889 3791.3489 2535.364 3787.7793 2538.9336 C 3783.7979 2542.915 3780.8252 2581.068 3779.6855 2642.8145 C 3778.6949 2696.4879 3775.1647 2747.1855 3771.8398 2755.4746 C 3761.8144 2780.4679 3745.5773 2783.1976 3616.8125 2781.5352 L 3498.875 2780.0117 L 3497.9199 2774.2422 L 3495.1875 2664.959 C 3491.747 2527.3426 3494.6218 2532.6286 3424.5742 2535.1348 L 3379.2695 2536.7559 L 3377.7031 2822.4277 C 3376.8413 2979.5469 3377.5258 3113.8258 3379.2246 3120.8262 C 3382.1217 3132.764 3385.25 3133.5547 3429.5977 3133.5547 C 3466.6554 3133.5547 3478.5578 3131.533 3484.6426 3124.209 C 3490.4892 3117.1717 3492.8809 3087.2076 3494.3281 3002.8594 C 3495.794 2917.4235 3498.0678 2889.3449 3503.9102 2884.4961 C 3507.3312 2881.657 3524.3616 2880.0759 3556.9414 2879.6562 L 3598.8926 2879.6562 C 3606.724 2879.731 3615.0075 2879.8369 3623.8789 2879.9824 C 3746.0111 2881.9863 3760.961 2885.622 3772.5664 2916.1465 C 3775.4795 2923.8086 3779.5769 2975.7343 3781.6719 3031.5371 C 3785.3152 3128.5855 3785.9962 3133.092 3797.3359 3135.2109 C 3815.9846 3138.6957 3876.3248 3132.5905 3884.1445 3126.4277 C 3892.8407 3119.5741 3894.3932 2559.0275 3885.7539 2545.3652 C 3881.5713 2538.7509 3848.0638 2534.1747 3821.1973 2533.9961 z M 4582.9551 2534.3555 C 4503.8188 2534.257 4491.9315 2536.3083 4484.5977 2542.9453 C 4474.3323 2552.2354 4473.8711 2565.1365 4473.8711 2843.1035 L 4473.8711 3133.5547 L 4521.2617 3133.5547 C 4557.4202 3133.5547 4570.3989 3131.4506 4576.0215 3124.6758 C 4581.1601 3118.4842 4584.1621 3087.6039 4585.9395 3022.6543 C 4589.0395 2909.3717 4586.4765 2912.9375 4664.8164 2912.9375 C 4746.9319 2912.9375 4749.1777 2914.5325 4848.0645 3043.0449 C 4877.99 3081.9358 4907.2448 3118.0457 4913.0742 3123.2891 C 4919.1994 3128.7985 4935.594 3133.5747 4951.916 3134.6035 C 4978.3089 3136.2671 5028.9826 3133.7888 5032.752 3130.6504 C 5033.6761 3129.881 4998.6728 3081.9765 4954.9688 3024.1953 C 4911.2647 2966.4141 4875.5078 2916.8108 4875.5078 2913.9668 C 4875.5078 2911.1229 4891.1205 2903.1044 4910.2031 2896.1465 C 4953.5172 2880.3534 4988.8742 2848.4581 5006.1758 2809.5703 C 5025.4091 2766.3405 5025.5161 2679.6006 5006.3887 2637.2949 C 4989.3097 2599.5199 4954.3338 2567.3579 4911.8184 2550.332 C 4879.2803 2537.3017 4872.9376 2536.8711 4686.8301 2535.0801 C 4643.1853 2534.6601 4609.3338 2534.3883 4582.9551 2534.3555 z M 4216.9492 2534.4688 C 4209.3682 2534.459 4201.6772 2534.4626 4193.9258 2534.4785 C 4090.5742 2534.6905 3976.6247 2537.1287 3973.209 2540.5508 C 3971.1259 2542.6377 3967.1594 2554.0922 3964.3945 2566.0059 C 3958.8289 2589.9866 3957.2347 3100.5737 3962.6621 3120.8262 L 3966.0742 3133.5547 L 4186.0312 3133.5547 L 4405.9883 3133.5547 L 4405.9023 3098.1992 C 4405.8547 3078.7537 4403.4888 3059.1655 4400.6445 3054.6699 C 4396.4361 3048.0182 4370.3816 3046.1 4260.7246 3044.3691 C 4197.823 3043.3762 4138.6977 3040.6534 4115.9062 3037.8984 C 4106.2954 3035.695 4098.8553 3032.8884 4093.0977 3029.2031 C 4088.454 3025.6301 4084.9601 3021.3024 4083.1973 3016.666 C 4076.9573 3000.2533 4076.1741 2896.0548 4082.2207 2886.7246 C 4085.0498 2882.3591 4128.268 2879.5995 4217.584 2878.082 C 4289.7481 2876.8559 4350.4603 2874.1842 4352.5 2872.1445 C 4357.4132 2867.2313 4357.2924 2800.1333 4352.3613 2795.1797 C 4350.2449 2793.0537 4292.7983 2790.0419 4224.7031 2788.4863 C 4115.8017 2785.9984 4099.6791 2784.4437 4090.8066 2775.5723 C 4082.5008 2767.2674 4080.3866 2753.5324 4078.832 2697.791 L 4076.9434 2630.0938 L 4189.6855 2630.0938 C 4251.6935 2630.0936 4325.7296 2628.4414 4354.209 2626.4199 L 4393.1406 2623.6562 L 4401.3828 2623.6562 L 4401.3828 2623.0703 L 4405.9883 2622.7441 L 4405.9883 2581.7227 L 4405.9883 2540.7012 L 4342.3496 2536.7695 C 4317.6595 2535.2442 4270.0165 2534.5365 4216.9492 2534.4688 z M 5393.1094 2615.9531 C 5469.9506 2615.9531 5500.8472 2628.041 5526.207 2668.0293 C 5550.8331 2706.8606 5557.1932 2741.8381 5556.8555 2836.5703 C 5556.4149 2960.1447 5539.0932 3011.2754 5487.3691 3041.6816 C 5463.2139 3055.8814 5455.51 3057.2885 5395.9375 3058.4004 C 5360.1579 3059.0683 5324.5034 3057.5452 5316.7051 3055.0156 C 5249.0081 3033.0564 5225.1747 2992.8059 5214.6562 2882.6758 C 5204.604 2777.4247 5218.1553 2703.8575 5255.3867 2661.5605 C 5287.0578 2625.5802 5316.133 2615.9531 5393.1094 2615.9531 z M 4592.7598 2617.793 L 4710.0918 2619.7617 C 4816.0841 2621.5407 4830.0076 2622.919 4854.1445 2634.0137 C 4890.1484 2650.5633 4903.7806 2673.631 4903.6465 2717.7754 C 4903.527 2757.1047 4888.9321 2794.4504 4868.4316 2807.8828 C 4860.9072 2812.813 4835.8739 2819.2965 4812.8027 2822.291 C 4754.9282 2829.8028 4639.2604 2828.8667 4615.293 2820.6934 C 4600.34 2815.5942 4593.8415 2809.0956 4588.7422 2794.1426 C 4580.4465 2769.8161 4579.2301 2653.3821 4587.0566 2632.7969 L 4592.7598 2617.793 z M 7706.8887 2682.7109 C 7724.8997 2682.4932 7763.1417 2701.9872 7827.9746 2740.0117 C 7938.5649 2804.8728 8110.3306 2864.7739 8204.5664 2871.3438 C 8248.5117 2874.4073 8280.9336 2868.3824 8280.9336 2857.1523 C 8280.9336 2847.8171 8240.1458 2832.382 8128.2832 2799.3828 C 8015.446 2766.0961 7963.5299 2748.3939 7954.3574 2739.8594 C 7953.1889 2738.1951 7952.8891 2736.622 7953.2188 2735.0449 C 7956.679 2724.5292 7984.1264 2718.7269 8029.2031 2719.1641 C 8112.5699 2719.9723 8178.154 2733.7126 8280.4492 2771.8027 C 8369.4406 2804.9391 8470.1013 2834.1222 8524.1797 2842.4648 C 8529.7032 2843.317 8534.8296 2844.3311 8539.5918 2845.4766 C 8554.1916 2850.4345 8564.9224 2855.0486 8572.2031 2859.6309 C 8583.4484 2869.0037 8583.8517 2880.7402 8571.6094 2892.9824 C 8564.4863 2900.1058 8556.691 2901.2441 8536.2539 2898.1445 C 8492.583 2891.5211 8462.1636 2893.3309 8452.3574 2903.1367 C 8444.5413 2910.9527 8444.3183 2914.6461 8450.7207 2930.1035 C 8454.801 2939.9541 8467.0511 2958.5776 8477.9434 2971.4883 C 8501.3865 2999.2755 8547.652 3094.6344 8579.9023 3181.6387 C 8720.7891 3561.7179 8680.8881 3866.2504 8461.6211 4084.377 C 8381.705 4163.8777 8263.4261 4238.7473 8168.5352 4269.8984 C 8127.1202 4283.4942 8014.4161 4301.0652 7890.6113 4313.2285 C 7841.2371 4318.0794 7718.9021 4322.9927 7610.5977 4324.4746 C 7577.6222 4324.9258 7548.8878 4325.2207 7523.4902 4325.2793 C 7507.2524 4325.2824 7491.8146 4325.2015 7477.2676 4325.043 C 7364.0893 4323.3878 7337.8373 4312.8618 7297.0723 4278.5605 C 7267.5271 4253.6998 7258.265 4227.4709 7242.9609 4125.3105 C 7229.0224 4032.2644 7204.2359 3925.8017 7187.1426 3885.5625 C 7182.4344 3874.4782 7168.1511 3852.8401 7155.4023 3837.4785 C 7120.7903 3795.7715 7118.1737 3772.7793 7148.0391 3772.7793 C 7170.8724 3772.7793 7207.5785 3815.4802 7236.7266 3875.9512 C 7264.1991 3932.9446 7283.7343 3999.7284 7302.4766 4100.7305 C 7320.7754 4199.3413 7339.4379 4233.9427 7383.3809 4250.7246 C 7423.1701 4265.9204 7446.5203 4256.3836 7503.5273 4201.6543 C 7556.093 4151.1892 7586.0997 4109.7605 7607.2188 4058.498 C 7619.3453 4029.0624 7621.8054 4011.6267 7625.5762 3928.3418 C 7633.4291 3754.9155 7660.1363 3626.0405 7720.1934 3471.7656 C 7772.6358 3337.0511 7780.3194 3293.781 7780.2344 3133.5547 C 7780.1422 2957.1041 7767.7751 2887.206 7714.3438 2761.1309 C 7692.0487 2708.524 7686.4762 2682.9577 7706.8887 2682.7109 z M 1188.0879 2692.3203 C 1194.7528 2692.3203 1198.9167 2694.2598 1200.5859 2698.5488 C 1200.668 2704.1088 1199.3227 2712.1115 1196.4316 2723.2832 C 1194.2334 2728.8089 1191.3206 2735.1451 1187.666 2742.3848 C 1154.7229 2807.6447 1122.4886 2966.0363 1116.1172 3093.957 C 1109.938 3218.0183 1131.3475 3376.7809 1170.3926 3496.4414 C 1179.8849 3525.5324 1210.5332 3595.1534 1238.5 3651.1562 C 1306.5023 3787.3293 1311.8707 3806.8584 1317.0293 3936.8281 C 1320.352 4020.5418 1323.4799 4047.7291 1332.6602 4072.7188 C 1352.5841 4126.9525 1373.9896 4163.7142 1401.8965 4191.6211 C 1425.8635 4215.5881 1432.5977 4219.1205 1461.1309 4222.6855 C 1519.1205 4229.9308 1552.1552 4217.9224 1573.2344 4181.9336 C 1578.6321 4172.7182 1588.2832 4139.0637 1594.6816 4107.1465 C 1618.5027 3988.3203 1678.3527 3859.2219 1717.252 3842.7617 C 1727.1897 3838.5565 1739.2822 3836.6365 1744.123 3838.4941 C 1763.3436 3845.8697 1747.639 3901.5971 1715.9062 3938.6191 C 1674.7024 3986.6912 1649.9402 4060.5557 1642.5469 4157.4453 C 1640.8125 4180.1756 1636.6382 4207.9251 1632.6504 4224.3223 C 1631.4675 4228.5778 1630.2386 4232.5979 1628.9648 4236.416 C 1618.1568 4264.6784 1592.0708 4291.1617 1565.8809 4299.832 C 1551.9835 4304.4328 1187.6732 4309.1003 986.51562 4308.8164 C 929.33844 4307.9781 879.1491 4306.6758 842.98828 4304.8613 C 685.42052 4285.2454 570.02887 4232.6338 464.34375 4132.7051 C 343.36465 4018.3155 272.37896 3864.4513 247.81836 3663.377 C 247.53052 3661.0204 247.26094 3658.5748 246.99805 3656.1035 C 246.18771 3628.2427 245.96549 3592.7724 245.83594 3543.6562 C 245.72611 3502.0231 245.98688 3467.255 246.91406 3436.9727 C 250.19795 3390.7428 255.27508 3347.8495 261.82227 3316.7656 C 292.46777 3171.2705 337.62662 3074.2825 418.91602 2979.377 C 467.10412 2923.1173 468.73689 2895.9668 423.92969 2895.9668 C 407.95019 2895.9668 399.1546 2900.0687 386.4375 2913.4551 C 361.5356 2939.6668 328.78055 2954.982 312.99805 2947.791 C 296.30845 2940.1867 285.55307 2908.2664 293.04297 2888.5664 C 300.51577 2868.9116 322.65679 2858.4962 366.99609 2853.7734 C 448.29769 2845.1136 497.01596 2829.4223 596.09766 2779.9844 C 711.42406 2722.4411 755.58203 2709.6371 853.83203 2705.2598 C 855.79105 2705.1725 857.64797 2705.106 859.54492 2705.0312 C 864.89375 2705.0813 870.33132 2705.1897 875.89453 2705.3633 C 919.86696 2706.7355 939.11413 2708.6553 946.06445 2713.5352 C 953.29866 2722.0141 936.02205 2736.6302 895.03516 2758.4648 C 841.86786 2786.7882 769.20237 2811.5961 692.35938 2827.6602 C 650.21528 2836.4704 632.38581 2842.9639 622.09961 2853.25 C 610.30251 2865.0472 609.40807 2868.3484 615.88477 2876.1523 C 631.76387 2895.2854 643.00808 2896.9461 691.08398 2887.2598 C 792.97098 2866.7318 932.21367 2813.5184 1095.9863 2732.5195 C 1140.6907 2710.4096 1182.1365 2692.3203 1188.0879 2692.3203 z M 1057.9199 2828.084 C 1028.9975 2828.084 946.59925 2893.8585 834.68945 3006.2754 C 696.20665 3145.3858 586.31219 3298.8557 498.17969 3476.2207 C 435.92999 3601.4971 411.99377 3674.4519 429.57617 3685.3184 C 441.62967 3692.7679 459.28186 3666.4518 512.25586 3562.0605 C 580.00816 3428.5473 643.61194 3331.5754 703.33594 3270.7324 C 744.35604 3228.9437 769.59172 3211.647 761.10742 3231.1348 C 705.11182 3359.7524 672.97034 3459.013 647.08594 3583.2734 C 638.66064 3623.7199 628.07891 3665.7239 623.57031 3676.6133 C 600.56021 3732.1885 563.27356 3762.6125 505.03516 3773.334 C 464.00436 3780.8877 455.52677 3786.7983 463.73047 3802.127 C 468.95407 3811.8874 473.4521 3812.8421 498.9668 3809.6074 C 587.5668 3798.3748 659.77224 3718.0431 687.15234 3600.2441 C 743.52144 3357.724 785.25342 3242.8146 865.10352 3110.2598 C 912.95102 3030.8307 941.04047 2994.8192 1012.9902 2920.6641 C 1059.0741 2873.1677 1074.1016 2854.0417 1074.1016 2842.8828 C 1074.1016 2830.3728 1071.5997 2828.084 1057.9199 2828.084 z M 7870.627 2847.1035 C 7853.1477 2847.0977 7842.8695 2860.0902 7849.7793 2878.4844 C 7852.0138 2884.4327 7875.2408 2912.2786 7901.3965 2940.3633 C 8041.5443 3090.847 8132.5689 3282.6878 8170.4531 3507.4258 C 8186.8429 3604.6535 8213.5896 3675.5532 8255.6211 3733.1816 C 8276.2689 3761.4914 8337.8845 3813.6805 8369.9746 3830.041 C 8381.4325 3835.8825 8398.7838 3840.6621 8408.5332 3840.6621 C 8428.6181 3840.6621 8448.1649 3823.1708 8443.0312 3809.793 C 8441.2033 3805.029 8414.516 3784.8361 8383.7266 3764.9199 C 8322.9339 3725.5961 8304.5568 3708.8039 8283.3379 3673.1855 C 8265.2122 3642.7596 8242.8822 3576.4671 8235.0801 3529.916 C 8226.4355 3478.3376 8172.1827 3316.8034 8142.2617 3253.5586 C 8114.1269 3194.0891 8117.2683 3194.4954 8176.7441 3258.0254 C 8264.3757 3351.6305 8333.5988 3452.4575 8396.4961 3578.1055 C 8439.7469 3664.5065 8455.1175 3686.1029 8469.4434 3680.6055 C 8488.3544 3673.3488 8483.1463 3653.3254 8440.8223 3570.5723 C 8329.6695 3353.2431 8216.1446 3185.6591 8066.2285 3017.6016 C 8000.5642 2943.9913 7909.2508 2858.8742 7886.7832 2850.332 C 7880.9792 2848.1253 7875.5212 2847.1051 7870.627 2847.1035 z M 2486.8613 3466.1875 L 2576.9961 3572.8145 C 2674.8431 3688.5667 4013.5339 5285.4475 4026.2578 5301.5918 C 4029.4676 5305.6644 4031.5165 5308.5235 4032.4609 5310.2344 C 4031.6383 5310.6812 4029.9576 5310.1673 4027.2539 5308.5469 C 4013.6719 5297.7256 3976.12 5262.0875 3912.1953 5199.4805 C 3849.3199 5137.9012 3455.4951 4753.8389 3037.0293 4346.0078 C 2618.5635 3938.1769 2265.2723 3593.1684 2251.9375 3579.3223 C 2222.6687 3548.9313 2224.276 3540.1854 2262.7031 3520.7129 C 2291.9592 3505.8877 2403.6498 3476.5833 2455.668 3470.084 L 2486.8613 3466.1875 z M 6404.1055 3480.7402 C 6415.2361 3480.8135 6434.2707 3483.4426 6468.7793 3489.002 C 6556.8961 3503.198 6612.2761 3519.6334 6626.7871 3535.8945 L 6637.6172 3548.0312 L 6233.1523 3949.1758 C 5492.7508 4683.4971 5132.9812 5038.5666 5099.332 5068.1582 C 5098.5474 5068.5434 5098.0376 5068.6392 5097.7422 5068.502 C 5108.0258 5054.0115 5193.0133 4948.4308 5294.5508 4824.0801 C 6139.979 3788.7042 6382.6711 3491.7511 6388.918 3485.0293 C 6391.573 3482.1724 6395.4483 3480.6832 6404.1055 3480.7402 z M 4443.8945 3567.7441 L 4406.5566 3571.4629 C 4381.7965 3573.9295 4366.8375 3578.3392 4362.1484 3584.5527 C 4356.7051 3591.7655 4355.0781 3660.739 4355.0781 3884.168 L 4355.0762 4174.416 L 4399.418 4174.416 L 4443.7578 4174.416 L 4447.5 3986.8164 C 4452.2397 3749.2866 4452.2631 3609.589 4447.5684 3586.1152 L 4443.8945 3567.7441 z M 5039.6562 3570.3711 C 5020.718 3570.504 4986.5782 3577.664 4979.7852 3584.457 C 4972.9627 3591.2795 4971.6738 3636.5802 4971.6738 3869.6387 L 4971.6738 4146.709 L 4991.7109 4155.0801 C 5002.7313 4159.6847 5030.0977 4165.7499 5052.5234 4168.5566 C 5112.5208 4176.0655 5223.1721 4171.6418 5260.1738 4160.2559 C 5302.6411 4147.1882 5338.6936 4110.0357 5353.6621 4063.9141 C 5370.2869 4012.6891 5368.9023 3906.5292 5351.0156 3860.9863 C 5334.0192 3817.7104 5300.2611 3783.8967 5256.8184 3766.6348 C 5227.1329 3754.8393 5214.0925 3753.3464 5139.9648 3753.2441 L 5056.5273 3753.1289 L 5056.5273 3664.293 C 5056.5273 3613.1755 5054.2032 3574.022 5051.0547 3572.0762 C 5049.0697 3570.8494 5044.959 3570.3339 5039.6562 3570.3711 z M 4064.7773 3574.4414 C 4039.8393 3574.3689 4015.8643 3576.1182 3995.0352 3580.0684 C 3871.4445 3603.5069 3805.8716 3681.4439 3789.9785 3823.7949 C 3776.4593 3944.8835 3811.0157 4060.0932 3880.9492 4127.0859 C 3911.0802 4155.9499 3925.1296 4163.5226 3964.7539 4172.2617 C 4009.7799 4182.1922 4120.2514 4181.7161 4169.3926 4171.3789 C 4192.1237 4166.5973 4223.7716 4156.7099 4239.7207 4149.4082 C 4264.5171 4138.0561 4269.1879 4133.3729 4271.9629 4117.0898 C 4273.7477 4106.6165 4273.417 4087.865 4271.2266 4075.4199 C 4266.1074 4046.3355 4256.9337 4044.9219 4195.6816 4063.7773 C 4124.5816 4085.6641 4062.1988 4093.3457 4022.6387 4085.0859 C 3931.3026 4066.0157 3892.5815 3989.6521 3898.6992 3840.6621 C 3900.2961 3801.7712 3904.9605 3759.7674 3909.0645 3747.3223 C 3919.2393 3716.4676 3955.852 3681.0412 3987.3809 3671.5449 C 4041.2197 3655.329 4075.313 3656.8328 4166.9766 3679.4609 C 4214.1603 3691.1088 4256.514 3699.1985 4261.0977 3697.4395 C 4273.3928 3692.7215 4278.7331 3647.332 4269.3066 3627.6641 C 4255.1827 3598.1955 4153.8418 3574.7005 4064.7773 3574.4414 z M 4512.8496 3750.1523 L 4514.5742 3918.4434 C 4516.2265 4079.7189 4516.8208 4087.7121 4528.8496 4110.2051 C 4542.8713 4136.4247 4570.8117 4156.1506 4609.3555 4167.041 C 4644.5904 4176.9965 4840.8039 4173.6088 4872.6797 4162.4941 L 4895.3066 4154.6035 L 4898.8809 4078.2422 C 4903.8153 3972.8281 4904.5332 3808.0446 4900.1953 3776.3965 L 4896.5977 3750.1523 L 4854.9395 3750.1523 L 4813.2832 3750.1523 L 4813.2832 3919.252 C 4813.2832 4075.0455 4812.5033 4088.6588 4803.3828 4092.2461 C 4785.798 4099.1625 4714.249 4102.4925 4674.5605 4098.2422 C 4642.8122 4094.8423 4633.0917 4091.2617 4619.957 4078.127 C 4604.3744 4062.5444 4603.9785 4060.6175 4603.9785 4000.3926 C 4603.9785 3966.4262 4602.3059 3896.2254 4600.2617 3844.3926 L 4596.5449 3750.1523 L 4554.6973 3750.1523 L 4512.8496 3750.1523 z M 5153.75 3824.8105 C 5196.0891 3825.1398 5231.3593 3836.3549 5249.9082 3856.0098 C 5272.2164 3879.6481 5278.8145 3910.1351 5276.1113 3977.0859 C 5273.2383 4048.2396 5264.4889 4068.6134 5230.0996 4084.2266 C 5210.9184 4092.9352 5192.9107 4094.995 5135.0781 4095.0957 L 5063.7227 4095.2188 L 5060.125 4068.9746 C 5055.6446 4036.2863 5055.5123 3864.8169 5059.9551 3848.2559 C 5063.875 3833.6438 5074.2869 3830.306 5130.293 3825.7031 C 5136.8652 3825.163 5143.3215 3824.8679 5149.6309 3824.8125 C 5151.011 3824.8004 5152.3842 3824.7999 5153.75 3824.8105 z "
     id="path725" />
</svg>
